<svg width="29" height="466" viewBox="0 0 29 466" fill="none" xmlns="http://www.w3.org/2000/svg">
<path opacity="0.3" d="M0.480468 446.516C0.480468 443.885 0.708332 441.444 1.16406 439.191C1.60677 436.926 2.17969 434.849 2.88281 432.961L9.44531 432.961C9.02864 433.703 8.625 434.543 8.23437 435.48C7.84375 436.405 7.4987 437.414 7.19922 438.508C6.89974 439.602 6.65885 440.773 6.47656 442.023C6.29427 443.273 6.20312 444.589 6.20312 445.969C6.20312 447.687 6.32682 449.185 6.57422 450.461C6.82161 451.737 7.15365 452.831 7.57031 453.742C7.98698 454.654 8.47526 455.402 9.03516 455.988C9.58203 456.574 10.168 457.036 10.793 457.375C11.418 457.714 12.056 457.948 12.707 458.078C13.3581 458.208 13.9896 458.273 14.6016 458.273C15.1354 458.273 15.7148 458.221 16.3398 458.117C16.9648 458 17.5898 457.792 18.2148 457.492C18.8398 457.18 19.4388 456.75 20.0117 456.203C20.5846 455.656 21.0924 454.947 21.5352 454.074C21.9779 453.189 22.3359 452.128 22.6094 450.891C22.8698 449.654 23 448.182 23 446.477C23 445.617 22.974 444.868 22.9219 444.23C22.8698 443.592 22.7982 443.013 22.707 442.492C22.6159 441.958 22.5052 441.464 22.375 441.008C22.2448 440.539 22.1081 440.057 21.9648 439.562L18.7227 439.562L18.7227 447.687L12.8437 447.687L12.8437 432.316L26.5547 432.316C26.8802 433.28 27.1797 434.361 27.4531 435.559C27.7135 436.743 27.9349 437.974 28.1172 439.25C28.3125 440.513 28.4622 441.783 28.5664 443.059C28.6706 444.335 28.7227 445.539 28.7227 446.672C28.7227 448.43 28.6055 450.116 28.3711 451.73C28.1367 453.345 27.7786 454.855 27.2969 456.262C26.8021 457.655 26.1771 458.931 25.4219 460.09C24.6667 461.236 23.7682 462.219 22.7266 463.039C21.6849 463.846 20.4935 464.478 19.1523 464.934C17.7982 465.376 16.2812 465.598 14.6016 465.598C12.9349 465.598 11.4245 465.363 10.0703 464.895C8.71615 464.426 7.51823 463.775 6.47656 462.941C5.4349 462.095 4.53646 461.086 3.78125 459.914C3.02604 458.729 2.40755 457.434 1.92578 456.027C1.43099 454.608 1.06641 453.098 0.832031 451.496C0.597655 449.882 0.480468 448.221 0.480468 446.516ZM28 424.504L1.16406 424.504L1.16406 417.258L28 417.258L28 424.504ZM8.72265 384.113C8.47526 384.621 8.19531 385.292 7.88281 386.125C7.57031 386.958 7.27734 387.902 7.0039 388.957C6.71744 390.012 6.48307 391.158 6.30078 392.395C6.10547 393.632 6.00781 394.901 6.00781 396.203C6.00781 397.245 6.04036 398.137 6.10547 398.879C6.17057 399.608 6.25521 400.227 6.35937 400.734C6.46354 401.229 6.58724 401.626 6.73047 401.926C6.86067 402.212 6.99739 402.434 7.14062 402.59C7.28385 402.746 7.42708 402.85 7.57031 402.902C7.71354 402.941 7.84375 402.961 7.96093 402.961C8.35156 402.961 8.69661 402.766 8.99609 402.375C9.28255 401.984 9.54297 401.451 9.77734 400.773C9.99869 400.096 10.2135 399.309 10.4219 398.41C10.6172 397.512 10.8255 396.561 11.0469 395.559C11.2552 394.543 11.4896 393.501 11.75 392.434C11.9974 391.353 12.2904 390.311 12.6289 389.309C12.9674 388.293 13.3646 387.336 13.8203 386.437C14.263 385.539 14.7839 384.751 15.3828 384.074C15.9818 383.397 16.6719 382.863 17.4531 382.473C18.2344 382.082 19.1263 381.887 20.1289 381.887C21.418 381.887 22.5247 382.115 23.4492 382.57C24.3737 383.026 25.1549 383.638 25.793 384.406C26.431 385.161 26.9453 386.04 27.3359 387.043C27.7135 388.046 28.0065 389.1 28.2148 390.207C28.4232 391.301 28.5599 392.414 28.625 393.547C28.6901 394.667 28.7227 395.734 28.7227 396.75C28.7227 399.406 28.5013 401.867 28.0586 404.133C27.6289 406.385 27.0885 408.378 26.4375 410.109L20.0312 410.109C21.0208 408.326 21.7956 406.294 22.3555 404.016C22.9154 401.724 23.1953 399.276 23.1953 396.672C23.1953 395.135 23.1172 393.885 22.9609 392.922C22.7917 391.945 22.5833 391.184 22.3359 390.637C22.0755 390.09 21.7956 389.719 21.4961 389.523C21.1966 389.328 20.9102 389.23 20.6367 389.23C20.207 389.23 19.8359 389.426 19.5234 389.816C19.1979 390.207 18.918 390.741 18.6836 391.418C18.4362 392.095 18.2148 392.883 18.0195 393.781C17.8112 394.68 17.6094 395.637 17.4141 396.652C17.2057 397.655 16.9844 398.69 16.75 399.758C16.5156 400.826 16.2422 401.867 15.9297 402.883C15.6042 403.885 15.2331 404.836 14.8164 405.734C14.3867 406.633 13.8854 407.421 13.3125 408.098C12.7266 408.775 12.056 409.309 11.3008 409.699C10.5325 410.09 9.64713 410.285 8.64453 410.285C7.45963 410.285 6.4375 410.077 5.57812 409.66C4.71875 409.243 3.98958 408.684 3.39062 407.98C2.77864 407.264 2.28385 406.444 1.90625 405.52C1.52864 404.582 1.23567 403.599 1.02734 402.57C0.819008 401.542 0.675778 400.5 0.597653 399.445C0.519528 398.391 0.480466 397.388 0.480466 396.437C0.480466 395.396 0.532549 394.328 0.636715 393.234C0.740882 392.128 0.890622 391.04 1.08593 389.973C1.26823 388.905 1.48307 387.876 1.73047 386.887C1.97786 385.884 2.23828 384.96 2.51172 384.113L8.72265 384.113ZM26.1641 330.402C26.5547 331.34 26.9062 332.284 27.2187 333.234C27.5312 334.185 27.7982 335.168 28.0195 336.184C28.2539 337.199 28.4297 338.273 28.5469 339.406C28.6641 340.526 28.7227 341.73 28.7227 343.02C28.7227 345.754 28.4297 348.273 27.8437 350.578C27.2578 352.87 26.3789 354.849 25.207 356.516C24.0221 358.169 22.5508 359.458 20.793 360.383C19.0221 361.307 16.9583 361.77 14.6016 361.77C12.2448 361.77 10.1875 361.307 8.42968 360.383C6.65885 359.458 5.1875 358.169 4.01562 356.516C2.83072 354.849 1.94531 352.87 1.35937 350.578C0.773432 348.273 0.480463 345.754 0.480463 343.02C0.480463 341.73 0.539057 340.526 0.656244 339.406C0.773432 338.273 0.949213 337.199 1.18359 336.184C1.40494 335.168 1.67187 334.185 1.98437 333.234C2.29687 332.284 2.64843 331.34 3.03906 330.402L9.56249 330.402C9.15885 331.145 8.76171 331.926 8.37109 332.746C7.96744 333.566 7.60937 334.471 7.29687 335.461C6.97135 336.451 6.71093 337.538 6.51562 338.723C6.30729 339.908 6.20312 341.242 6.20312 342.727C6.20312 345.005 6.43749 346.9 6.90624 348.41C7.37499 349.908 7.99999 351.105 8.78124 352.004C9.56249 352.902 10.4609 353.534 11.4766 353.898C12.4792 354.263 13.5208 354.445 14.6016 354.445C15.3177 354.445 16.0273 354.367 16.7305 354.211C17.4206 354.055 18.0781 353.794 18.7031 353.43C19.3151 353.065 19.8815 352.59 20.4023 352.004C20.9232 351.418 21.3724 350.689 21.75 349.816C22.1276 348.944 22.4271 347.928 22.6484 346.77C22.8568 345.598 22.9609 344.25 22.9609 342.727C22.9609 341.242 22.8698 339.908 22.6875 338.723C22.4922 337.538 22.2383 336.451 21.9258 335.461C21.6133 334.471 21.2617 333.566 20.8711 332.746C20.4674 331.926 20.0573 331.145 19.6406 330.402L26.1641 330.402ZM14.6016 288.918C16.9062 288.918 18.944 289.341 20.7148 290.187C22.4726 291.034 23.944 292.245 25.1289 293.82C26.3138 295.396 27.2122 297.31 27.8242 299.562C28.4232 301.802 28.7226 304.322 28.7226 307.121C28.7226 309.921 28.4232 312.453 27.8242 314.719C27.2122 316.971 26.3138 318.892 25.1289 320.48C23.944 322.069 22.4726 323.293 20.7148 324.152C18.944 325.012 16.9062 325.441 14.6016 325.441C12.2969 325.441 10.2656 325.012 8.50781 324.152C6.73697 323.293 5.25911 322.069 4.07421 320.48C2.88932 318.892 1.99739 316.971 1.39843 314.719C0.786452 312.453 0.480462 309.921 0.480462 307.121C0.480462 304.322 0.786451 301.802 1.39843 299.562C1.99739 297.31 2.88932 295.396 4.07421 293.82C5.25911 292.245 6.73697 291.034 8.5078 290.187C10.2656 289.341 12.2969 288.918 14.6016 288.918ZM14.6016 296.242C13.599 296.242 12.6029 296.405 11.6133 296.73C10.6107 297.043 9.71223 297.609 8.91796 298.43C8.12369 299.237 7.47916 300.344 6.98437 301.75C6.48958 303.156 6.24218 304.947 6.24218 307.121C6.24218 308.579 6.35937 309.862 6.59374 310.969C6.8151 312.076 7.1276 313.033 7.53124 313.84C7.93489 314.647 8.41015 315.324 8.95702 315.871C9.49088 316.418 10.0703 316.854 10.6953 317.18C11.3073 317.505 11.9518 317.74 12.6289 317.883C13.293 318.013 13.9505 318.078 14.6016 318.078C15.2656 318.078 15.9362 318.013 16.6133 317.883C17.2904 317.74 17.9414 317.505 18.5664 317.18C19.1784 316.854 19.7513 316.418 20.2851 315.871C20.819 315.324 21.2878 314.647 21.6914 313.84C22.082 313.033 22.3945 312.076 22.6289 310.969C22.8503 309.862 22.9609 308.579 22.9609 307.121C22.9609 304.947 22.7135 303.156 22.2187 301.75C21.724 300.344 21.0794 299.237 20.2851 298.43C19.4909 297.609 18.599 297.043 17.6094 296.73C16.6068 296.405 15.6042 296.242 14.6016 296.242ZM28 256.965L9.56249 275.07L28 275.07L28 282.316L1.16405 282.316L1.16405 274.445L19.6797 256.32L1.16405 256.32L1.16405 249.113L28 249.113L28 256.965ZM8.72265 215.988C8.47525 216.496 8.1953 217.167 7.8828 218C7.5703 218.833 7.27733 219.777 7.0039 220.832C6.71744 221.887 6.48306 223.033 6.30077 224.27C6.10546 225.507 6.0078 226.776 6.0078 228.078C6.0078 229.12 6.04035 230.012 6.10546 230.754C6.17056 231.483 6.2552 232.102 6.35936 232.609C6.46353 233.104 6.58723 233.501 6.73046 233.801C6.86067 234.087 6.99739 234.309 7.14061 234.465C7.28384 234.621 7.42707 234.725 7.5703 234.777C7.71353 234.816 7.84374 234.836 7.96093 234.836C8.35155 234.836 8.6966 234.641 8.99608 234.25C9.28254 233.859 9.54296 233.326 9.77733 232.648C9.99869 231.971 10.2135 231.184 10.4219 230.285C10.6172 229.387 10.8255 228.436 11.0469 227.434C11.2552 226.418 11.4896 225.376 11.75 224.309C11.9974 223.228 12.2904 222.186 12.6289 221.184C12.9674 220.168 13.3646 219.211 13.8203 218.312C14.263 217.414 14.7838 216.626 15.3828 215.949C15.9818 215.272 16.6719 214.738 17.4531 214.348C18.2344 213.957 19.1263 213.762 20.1289 213.762C21.418 213.762 22.5247 213.99 23.4492 214.445C24.3737 214.901 25.1549 215.513 25.793 216.281C26.431 217.036 26.9453 217.915 27.3359 218.918C27.7135 219.921 28.0065 220.975 28.2148 222.082C28.4232 223.176 28.5599 224.289 28.625 225.422C28.6901 226.542 28.7226 227.609 28.7226 228.625C28.7226 231.281 28.5013 233.742 28.0586 236.008C27.6289 238.26 27.0885 240.253 26.4375 241.984L20.0312 241.984C21.0208 240.201 21.7956 238.169 22.3555 235.891C22.9154 233.599 23.1953 231.151 23.1953 228.547C23.1953 227.01 23.1172 225.76 22.9609 224.797C22.7917 223.82 22.5833 223.059 22.3359 222.512C22.0755 221.965 21.7956 221.594 21.4961 221.398C21.1966 221.203 20.9101 221.105 20.6367 221.105C20.207 221.105 19.8359 221.301 19.5234 221.691C19.1979 222.082 18.918 222.616 18.6836 223.293C18.4362 223.97 18.2148 224.758 18.0195 225.656C17.8112 226.555 17.6094 227.512 17.4141 228.527C17.2057 229.53 16.9844 230.565 16.75 231.633C16.5156 232.701 16.2422 233.742 15.9297 234.758C15.6042 235.76 15.2331 236.711 14.8164 237.609C14.3867 238.508 13.8854 239.296 13.3125 239.973C12.7266 240.65 12.056 241.184 11.3008 241.574C10.5325 241.965 9.64713 242.16 8.64452 242.16C7.45963 242.16 6.43749 241.952 5.57812 241.535C4.71874 241.118 3.98957 240.559 3.39062 239.855C2.77864 239.139 2.28384 238.319 1.90624 237.395C1.52864 236.457 1.23567 235.474 1.02733 234.445C0.819 233.417 0.675771 232.375 0.597646 231.32C0.519521 230.266 0.480458 229.263 0.480458 228.312C0.480458 227.271 0.532542 226.203 0.636708 225.109C0.740875 224.003 0.890614 222.915 1.08593 221.848C1.26822 220.78 1.48306 219.751 1.73046 218.762C1.97785 217.759 2.23827 216.835 2.51171 215.988L8.72265 215.988ZM14.6015 172.16C16.9062 172.16 18.944 172.583 20.7148 173.43C22.4726 174.276 23.944 175.487 25.1289 177.062C26.3138 178.638 27.2122 180.552 27.8242 182.805C28.4232 185.044 28.7226 187.564 28.7226 190.363C28.7226 193.163 28.4232 195.695 27.8242 197.961C27.2122 200.214 26.3138 202.134 25.1289 203.723C23.944 205.311 22.4726 206.535 20.7148 207.395C18.944 208.254 16.9062 208.684 14.6016 208.684C12.2969 208.684 10.2656 208.254 8.5078 207.395C6.73697 206.535 5.2591 205.311 4.07421 203.723C2.88931 202.134 1.99738 200.214 1.39843 197.961C0.786446 195.695 0.480457 193.163 0.480457 190.363C0.480456 187.564 0.786446 185.044 1.39843 182.805C1.99738 180.552 2.88931 178.638 4.07421 177.062C5.2591 175.487 6.73697 174.276 8.5078 173.43C10.2656 172.583 12.2969 172.16 14.6015 172.16ZM14.6015 179.484C13.5989 179.484 12.6029 179.647 11.6133 179.973C10.6107 180.285 9.71223 180.852 8.91796 181.672C8.12369 182.479 7.47915 183.586 6.98436 184.992C6.48957 186.398 6.24218 188.189 6.24218 190.363C6.24218 191.822 6.35936 193.104 6.59374 194.211C6.81509 195.318 7.12759 196.275 7.53124 197.082C7.93488 197.889 8.41014 198.566 8.95702 199.113C9.49087 199.66 10.0703 200.096 10.6953 200.422C11.3073 200.747 11.9518 200.982 12.6289 201.125C13.293 201.255 13.9505 201.32 14.6016 201.32C15.2656 201.32 15.9362 201.255 16.6133 201.125C17.2904 200.982 17.9414 200.747 18.5664 200.422C19.1784 200.096 19.7513 199.66 20.2851 199.113C20.819 198.566 21.2877 197.889 21.6914 197.082C22.082 196.275 22.3945 195.318 22.6289 194.211C22.8502 193.104 22.9609 191.822 22.9609 190.363C22.9609 188.189 22.7135 186.398 22.2187 184.992C21.7239 183.586 21.0794 182.479 20.2851 181.672C19.4909 180.852 18.5989 180.285 17.6094 179.973C16.6068 179.647 15.6042 179.484 14.6015 179.484ZM28 158.312L28 165.559L1.16405 165.559L1.16405 147.395C1.16405 145.441 1.36587 143.788 1.76952 142.434C2.17316 141.066 2.74608 139.96 3.48827 139.113C4.23045 138.254 5.12889 137.635 6.18358 137.258C7.22525 136.867 8.39061 136.672 9.67967 136.672C10.8125 136.672 11.8021 136.835 12.6484 137.16C13.4948 137.473 14.2239 137.902 14.8359 138.449C15.4349 138.983 15.9427 139.608 16.3594 140.324C16.776 141.04 17.1211 141.796 17.3945 142.59L28 133.801L28 142.277L18.1172 150.402L18.1172 158.312L28 158.312ZM9.64061 143.996C9.11978 143.996 8.67707 144.068 8.31249 144.211C7.9479 144.341 7.65493 144.576 7.43358 144.914C7.1992 145.253 7.02993 145.708 6.92577 146.281C6.8216 146.841 6.76952 147.544 6.76952 148.391L6.76952 158.312L12.5117 158.312L12.5117 148.391C12.5117 147.544 12.4596 146.841 12.3555 146.281C12.2513 145.708 12.0885 145.253 11.8672 144.914C11.6328 144.576 11.3333 144.341 10.9687 144.211C10.6042 144.068 10.1614 143.996 9.64061 143.996ZM7.00389 113.566L28 113.566L28 120.812L7.00389 120.812L7.00389 132.199L1.16405 132.199L1.16405 102.16L7.00389 102.16L7.00389 113.566ZM28 97.3555L1.16405 97.3555L1.16405 90.1094L28 90.1094L28 97.3555ZM18.957 50.0117C20.2982 50.0117 21.5612 50.3437 22.7461 51.0078C23.931 51.6719 24.9661 52.668 25.8515 53.9961C26.737 55.3242 27.4401 56.9844 27.9609 58.9766C28.4687 60.9557 28.7226 63.2734 28.7226 65.9297C28.7226 68.5859 28.4687 70.9167 27.9609 72.9219C27.4401 74.9141 26.737 76.5742 25.8515 77.9023C24.9661 79.2305 23.931 80.2266 22.7461 80.8906C21.5612 81.5547 20.2982 81.8867 18.957 81.8867L1.16405 81.8867L1.16405 74.6602L16.3594 74.6602C17.2578 74.6602 18.1107 74.5495 18.918 74.3281C19.7122 74.0937 20.4088 73.6641 21.0078 73.0391C21.6068 72.401 22.082 71.5156 22.4336 70.3828C22.7851 69.237 22.9609 67.7526 22.9609 65.9297C22.9609 64.1198 22.7851 62.6484 22.4336 61.5156C22.082 60.3828 21.6068 59.5039 21.0078 58.8789C20.4088 58.2409 19.7122 57.8112 18.918 57.5898C18.1107 57.3685 17.2578 57.2578 16.3594 57.2578L1.16404 57.2578L1.16404 50.0117L18.957 50.0117ZM28 7.6875L9.15232 7.6875L28 17.6484L28 24.6016L9.15232 34.5625L28 34.5625L28 41.8086L1.16404 41.8086L1.16404 31.9648L21.4765 21.125L1.16404 10.2852L1.16404 0.480467L28 0.480466L28 7.6875Z" fill="white"/>
</svg>
