<svg width="1299" height="197" viewBox="0 0 1299 197" fill="none" xmlns="http://www.w3.org/2000/svg">
<g opacity="0.2" clip-path="url(#clip0_2027_829)">
<g opacity="0.5">
<path d="M1299 97.526L1271.84 116.047C1244.69 134.567 1190.37 172.931 1136.06 164.993C1081.74 157.055 1027.43 104.14 973.118 108.109C921.068 112.078 866.755 172.931 812.44 180.869C758.127 187.482 703.813 142.504 649.5 108.109C595.187 73.714 540.873 51.2249 486.56 43.2875C432.245 36.6731 377.932 43.2875 323.618 63.1309C271.568 81.6513 217.255 112.078 162.94 116.047C108.627 120.015 54.3135 97.526 27.1567 85.62L0 73.714" stroke="#FDCA9D" stroke-width="2"/>
<path d="M1299 108.921L1271.84 85.2152C1244.69 61.509 1190.37 12.4034 1136.06 22.5632C1081.74 32.7229 1027.43 100.455 973.118 95.3749C921.068 90.295 866.755 12.4034 812.44 2.24359C758.127 -6.2229 703.813 51.3492 649.5 95.3749C595.187 139.401 540.873 168.187 486.56 178.347C432.245 186.812 377.932 178.347 323.618 152.947C271.568 129.241 217.255 90.295 162.94 85.2152C108.627 80.1353 54.3135 108.921 27.1567 124.161L0 139.401" stroke="#FFEAD7" stroke-width="2"/>
<path d="M0 133.202L27.1568 112.83C54.3136 92.4571 108.627 50.2569 162.94 58.988C217.255 67.719 271.568 125.926 325.882 121.561C377.932 117.195 432.245 50.2569 486.56 41.5259C540.873 34.25 595.187 83.726 649.5 121.561C703.813 159.395 758.127 184.133 812.44 192.864C866.755 200.141 921.068 192.864 975.381 171.037C1027.43 150.664 1081.74 117.195 1136.06 112.83C1190.37 108.464 1244.69 133.202 1271.84 146.299L1299 159.396" stroke="#FFDDC0" stroke-width="2"/>
</g>
</g>
<defs>
<clipPath id="clip0_2027_829">
<rect width="1299" height="197" fill="white"/>
</clipPath>
</defs>
</svg>
