<svg width="1600" height="197" viewBox="0 0 1600 197" fill="none" xmlns="http://www.w3.org/2000/svg">
<g clip-path="url(#clip0_2027_4)">
<g opacity="0.5">
<path d="M1800 97.4641L1762.37 115.973C1724.74 134.482 1649.47 172.821 1574.21 164.888C1498.95 156.956 1423.69 104.074 1348.43 108.041C1276.31 112.007 1201.05 172.821 1125.78 180.754C1050.52 187.363 975.261 142.414 900 108.041C824.739 73.6673 749.478 51.1925 674.217 43.2601C598.954 36.6499 523.693 43.2601 448.432 63.0909C376.307 81.5995 301.046 112.007 225.783 115.973C150.522 119.939 75.2612 97.4641 37.6305 85.5657L0 73.6673" stroke="#FDCA9D" stroke-width="2"/>
<path d="M1800 108.852L1762.37 85.1611C1724.74 61.4698 1649.47 12.3954 1574.21 22.5488C1498.95 32.7021 1423.69 100.391 1348.43 95.3143C1276.31 90.2376 1201.05 12.3954 1125.78 2.24209C1050.52 -6.21904 975.261 51.3166 900 95.3143C824.739 139.312 749.478 168.081 674.217 178.234C598.954 186.694 523.693 178.234 448.432 152.85C376.307 129.159 301.046 90.2376 225.783 85.1611C150.522 80.0844 75.2612 108.852 37.6305 124.082L0 139.312" stroke="#FFEAD7" stroke-width="2"/>
<path d="M0 133.118L37.6307 112.758C75.2614 92.3985 150.522 50.2251 225.783 58.9506C301.046 67.6761 376.307 125.846 451.568 121.484C523.693 117.121 598.954 50.2251 674.217 41.4996C749.478 34.2283 824.739 83.6728 900 121.484C975.261 159.294 1050.52 184.016 1125.78 192.742C1201.05 200.014 1276.31 192.742 1351.57 170.928C1423.69 150.569 1498.95 117.121 1574.21 112.758C1649.47 108.395 1724.74 133.118 1762.37 146.206L1800 159.294" stroke="#FFDDC0" stroke-width="2"/>
</g>
</g>
<defs>
<clipPath id="clip0_2027_4">
<rect width="1800" height="196.875" fill="white"/>
</clipPath>
</defs>
</svg>
