<svg width="18" height="18" viewBox="0 0 18 18" fill="none" xmlns="http://www.w3.org/2000/svg">
<g clip-path="url(#clip0_2027_943)">
<path d="M16.2492 0.292969H0.945723C0.694902 0.292969 0.454354 0.392607 0.276996 0.569965C0.0996384 0.747323 0 0.987871 0 1.23869L0 16.5422C0 16.793 0.0996384 17.0336 0.276996 17.211C0.454354 17.3883 0.694902 17.4879 0.945723 17.4879H9.18608V10.8745H6.95074V8.22911H9.18608V6.31783C9.18608 4.10232 10.5088 2.89206 12.5259 2.89206C13.1885 2.88901 13.8509 2.92212 14.5099 2.99126V5.31258H13.1608C12.0828 5.31258 11.9042 5.82843 11.9042 6.57575V8.22911H14.4835L14.1131 10.8745H11.9042V17.4879H16.2823C16.5274 17.4794 16.7595 17.376 16.9298 17.1995C17.1 17.0231 17.1951 16.7874 17.195 16.5422V1.23869C17.195 0.987871 17.0953 0.747323 16.918 0.569965C16.7406 0.392607 16.5001 0.292969 16.2492 0.292969Z" fill="#FDFDFD"/>
</g>
<defs>
<clipPath id="clip0_2027_943">
<rect width="17.195" height="17.195" fill="white" transform="translate(0 0.292969)"/>
</clipPath>
</defs>
</svg>
