<svg width="159" height="45" viewBox="0 0 159 45" fill="none" xmlns="http://www.w3.org/2000/svg">
<g clip-path="url(#clip0_2027_966)">
<path d="M33.3722 10.1272C33.958 10.5277 33.8982 11.1434 33.8982 11.7292C33.8982 19.5362 33.8623 27.3491 33.9341 35.1561C33.946 36.7283 33.4319 37.1826 31.8956 37.1587C26.6531 37.0869 21.4047 37.081 16.1621 37.1886C14.4047 37.2244 14.1835 36.3696 14.327 35.0067C16.8496 26.4106 22.122 19.8769 30.2816 14.7839C27.221 14.3535 24.9794 14.0367 22.0144 13.6182C26.0912 11.5918 29.6839 10.707 33.3781 10.1392L33.3722 10.1272Z" fill="#F37009"/>
<path d="M33.3721 10.127C29.6779 10.6949 26.0852 11.5796 22.0084 13.606C24.9734 14.0245 27.215 14.3413 30.2756 14.7717C22.122 19.8648 16.8436 26.4045 14.321 34.9945C14.4764 29.6504 15.6062 24.6111 18.9119 20.2414C19.3303 19.6854 19.7667 19.1355 20.1015 18.5317C21.0878 16.7504 20.2509 15.2619 18.1826 15.1662C16.8914 15.1065 15.6002 15.1543 13.5797 15.1543C19.8683 10.5813 26.414 8.01682 33.3661 5.19531V10.127H33.3721Z" fill="#D6D4CD"/>
<path d="M44.1441 28.4967C44.1441 32.5138 40.7607 36.2678 37.2039 36.8177C36.1757 36.9791 36.0741 36.4352 35.7692 35.7896C35.4046 35.0184 35.4883 34.6717 36.3311 34.2174C42.1774 31.097 42.4285 30.2482 39.7624 24.0791C38.3098 20.7136 36.7615 17.384 35.4703 13.9588C33.7906 9.52327 37.4012 4.06557 42.1117 3.58137C43.1757 3.47377 43.1458 4.19111 43.4746 4.74704C43.905 5.47632 43.6001 5.81108 42.9246 6.06812C42.279 6.31321 41.6334 6.57026 41.0117 6.8811C38.1125 8.3337 37.0425 10.7308 38.2381 13.7555C39.7265 17.5335 41.4063 21.2337 43.0621 24.9399C43.636 26.2251 44.1142 27.5044 44.1441 28.4907V28.4967Z" fill="#666666"/>
<path d="M24.3098 2.35606C24.3995 3.86246 21.8649 6.19379 20.2569 6.25357C19.2765 6.28943 18.6548 5.91283 18.8162 4.90857C19.151 2.81635 20.6335 1.66861 22.4925 1.0529C23.5327 0.706192 24.0886 1.49526 24.3098 2.35008V2.35606Z" fill="#F47613"/>
<path d="M12.5515 16.296C11.2962 16.2841 10.1963 16.7802 9.198 17.4677C5.76078 19.8349 3.549 23.1705 1.84534 26.8886C0.984541 28.7716 0.380786 30.7383 0.332964 32.8186C0.297098 34.4983 0.882919 35.939 2.44909 36.7759C3.93756 37.5709 5.3244 37.0867 6.49007 36.1064C7.4764 35.2755 8.30133 34.2473 9.19202 33.3088C9.34146 33.1533 9.47895 32.986 9.74795 32.6871L9.94522 36.9134C10.1245 36.9612 10.0767 36.9492 10.2561 36.9971C10.7642 34.4565 11.9597 31.366 13.1852 28.6879C12.4798 28.6879 11.8163 28.6879 11.1647 28.6879L10.9435 29.1662C10.9435 29.1781 10.9315 29.1901 10.9256 29.202L10.9017 29.2618C10.3876 30.296 10.0229 31.1747 9.53873 31.9697C8.54044 33.6077 7.38075 35.126 5.55156 35.939C4.47556 36.4172 3.69845 36.0346 3.33978 34.9108C2.90341 33.5299 3.011 32.1311 3.25012 30.7443C3.74029 27.9467 4.85814 25.3763 6.28084 22.9433C7.41064 21.0065 8.68391 19.1474 10.6865 18.0057C11.35 17.6291 12.1809 17.4318 12.952 17.3899C13.8128 17.3481 14.4345 18.0535 14.309 18.9023C14.2612 19.2251 14.2074 19.5419 14.1536 19.8647L14.5242 19.9365L14.8589 18.1133C14.4465 16.8041 13.7829 16.302 12.5515 16.29V16.296Z" fill="#666666" stroke="#666666" stroke-miterlimit="10"/>
</g>
<path d="M55.4424 23.3922C54.8771 23.3922 54.3704 23.4988 53.9224 23.7122C53.4744 23.9148 53.0904 24.2188 52.7704 24.6242C52.4611 25.0188 52.2211 25.5042 52.0504 26.0802C51.8904 26.6455 51.8104 27.2855 51.8104 28.0002C51.8104 28.9388 51.9437 29.7548 52.2104 30.4482C52.4771 31.1415 52.8771 31.6748 53.4104 32.0482C53.9544 32.4215 54.6264 32.6082 55.4264 32.6082C55.8957 32.6082 56.3384 32.5655 56.7544 32.4802C57.1811 32.3948 57.6024 32.2882 58.0184 32.1602V33.4082C57.6131 33.5682 57.1971 33.6855 56.7704 33.7602C56.3437 33.8348 55.8317 33.8722 55.2344 33.8722C54.1357 33.8722 53.2184 33.6322 52.4824 33.1522C51.7571 32.6722 51.2131 31.9895 50.8504 31.1042C50.4877 30.2188 50.3064 29.1788 50.3064 27.9842C50.3064 27.1202 50.4184 26.3308 50.6424 25.6162C50.8664 24.9015 51.1971 24.2828 51.6344 23.7602C52.0717 23.2375 52.6104 22.8375 53.2504 22.5602C53.8904 22.2722 54.6264 22.1282 55.4584 22.1282C56.0024 22.1282 56.5304 22.1868 57.0424 22.3042C57.5544 22.4215 58.0184 22.5868 58.4344 22.8002L57.8744 24.0162C57.5437 23.8562 57.1704 23.7122 56.7544 23.5842C56.3491 23.4562 55.9117 23.3922 55.4424 23.3922ZM67.2144 29.4082C67.2144 30.1228 67.1237 30.7575 66.9424 31.3122C66.7717 31.8562 66.5211 32.3202 66.1904 32.7042C65.8597 33.0882 65.4597 33.3815 64.9904 33.5842C64.5211 33.7762 63.9984 33.8722 63.4224 33.8722C62.8891 33.8722 62.3931 33.7762 61.9344 33.5842C61.4864 33.3815 61.0917 33.0882 60.7504 32.7042C60.4197 32.3202 60.1637 31.8562 59.9824 31.3122C59.8011 30.7575 59.7104 30.1228 59.7104 29.4082C59.7104 28.4588 59.8597 27.6588 60.1584 27.0082C60.4677 26.3468 60.9051 25.8455 61.4704 25.5042C62.0357 25.1522 62.7024 24.9762 63.4704 24.9762C64.2064 24.9762 64.8517 25.1522 65.4064 25.5042C65.9717 25.8455 66.4144 26.3468 66.7344 27.0082C67.0544 27.6588 67.2144 28.4588 67.2144 29.4082ZM61.1504 29.4082C61.1504 30.0802 61.2304 30.6668 61.3904 31.1682C61.5504 31.6588 61.8011 32.0375 62.1424 32.3042C62.4837 32.5708 62.9211 32.7042 63.4544 32.7042C63.9877 32.7042 64.4251 32.5708 64.7664 32.3042C65.1077 32.0375 65.3584 31.6588 65.5184 31.1682C65.6891 30.6668 65.7744 30.0802 65.7744 29.4082C65.7744 28.7255 65.6891 28.1442 65.5184 27.6642C65.3584 27.1842 65.1077 26.8162 64.7664 26.5602C64.4251 26.2935 63.9824 26.1602 63.4384 26.1602C62.6384 26.1602 62.0571 26.4482 61.6944 27.0242C61.3317 27.6002 61.1504 28.3948 61.1504 29.4082ZM73.2194 24.9762C74.1794 24.9762 74.9047 25.2268 75.3954 25.7282C75.8967 26.2188 76.1474 27.0188 76.1474 28.1282V33.7122H74.7554V28.2242C74.7554 27.5308 74.6114 27.0135 74.3234 26.6722C74.0354 26.3308 73.5927 26.1602 72.9954 26.1602C72.1207 26.1602 71.5127 26.4268 71.1714 26.9602C70.8407 27.4935 70.6754 28.2615 70.6754 29.2642V33.7122H69.2834V25.1362H70.4034L70.6114 26.3042H70.6914C70.8621 26.0055 71.0807 25.7602 71.3474 25.5682C71.6141 25.3655 71.9074 25.2162 72.2274 25.1202C72.5474 25.0242 72.8781 24.9762 73.2194 24.9762ZM83.9232 31.3442C83.9232 31.8988 83.7898 32.3628 83.5232 32.7362C83.2672 33.1095 82.8992 33.3922 82.4192 33.5842C81.9392 33.7762 81.3632 33.8722 80.6912 33.8722C80.1258 33.8722 79.6352 33.8242 79.2192 33.7282C78.8138 33.6322 78.4565 33.4988 78.1472 33.3282V32.0482C78.4778 32.2188 78.8725 32.3788 79.3312 32.5282C79.7898 32.6668 80.2538 32.7362 80.7232 32.7362C81.3738 32.7362 81.8432 32.6242 82.1312 32.4002C82.4298 32.1655 82.5792 31.8562 82.5792 31.4722C82.5792 31.2588 82.5205 31.0668 82.4032 30.8962C82.2965 30.7255 82.0992 30.5548 81.8112 30.3842C81.5338 30.2135 81.1285 30.0215 80.5952 29.8082C80.0832 29.5948 79.6405 29.3815 79.2672 29.1682C78.9045 28.9548 78.6218 28.6988 78.4192 28.4002C78.2272 28.1015 78.1312 27.7175 78.1312 27.2482C78.1312 26.5228 78.4085 25.9628 78.9632 25.5682C79.5285 25.1735 80.2645 24.9762 81.1712 24.9762C81.6618 24.9762 82.1205 25.0295 82.5472 25.1362C82.9738 25.2322 83.3792 25.3708 83.7632 25.5522L83.2992 26.6722C83.0752 26.5655 82.8405 26.4748 82.5952 26.4002C82.3498 26.3148 82.0992 26.2508 81.8432 26.2082C81.5978 26.1548 81.3472 26.1282 81.0912 26.1282C80.5685 26.1282 80.1685 26.2242 79.8912 26.4162C79.6138 26.5975 79.4752 26.8482 79.4752 27.1682C79.4752 27.4028 79.5392 27.6055 79.6672 27.7762C79.7952 27.9468 80.0032 28.1122 80.2912 28.2722C80.5898 28.4215 80.9952 28.5975 81.5072 28.8002C82.0192 29.0028 82.4565 29.2108 82.8192 29.4242C83.1818 29.6375 83.4538 29.8988 83.6352 30.2082C83.8272 30.5068 83.9232 30.8855 83.9232 31.3442ZM92.9175 29.4082C92.9175 30.1228 92.8269 30.7575 92.6455 31.3122C92.4749 31.8562 92.2242 32.3202 91.8935 32.7042C91.5629 33.0882 91.1629 33.3815 90.6935 33.5842C90.2242 33.7762 89.7015 33.8722 89.1255 33.8722C88.5922 33.8722 88.0962 33.7762 87.6375 33.5842C87.1895 33.3815 86.7949 33.0882 86.4535 32.7042C86.1229 32.3202 85.8669 31.8562 85.6855 31.3122C85.5042 30.7575 85.4135 30.1228 85.4135 29.4082C85.4135 28.4588 85.5629 27.6588 85.8615 27.0082C86.1709 26.3468 86.6082 25.8455 87.1735 25.5042C87.7389 25.1522 88.4055 24.9762 89.1735 24.9762C89.9095 24.9762 90.5549 25.1522 91.1095 25.5042C91.6749 25.8455 92.1175 26.3468 92.4375 27.0082C92.7575 27.6588 92.9175 28.4588 92.9175 29.4082ZM86.8535 29.4082C86.8535 30.0802 86.9335 30.6668 87.0935 31.1682C87.2535 31.6588 87.5042 32.0375 87.8455 32.3042C88.1869 32.5708 88.6242 32.7042 89.1575 32.7042C89.6909 32.7042 90.1282 32.5708 90.4695 32.3042C90.8109 32.0375 91.0615 31.6588 91.2215 31.1682C91.3922 30.6668 91.4775 30.0802 91.4775 29.4082C91.4775 28.7255 91.3922 28.1442 91.2215 27.6642C91.0615 27.1842 90.8109 26.8162 90.4695 26.5602C90.1282 26.2935 89.6855 26.1602 89.1415 26.1602C88.3415 26.1602 87.7602 26.4482 87.3975 27.0242C87.0349 27.6002 86.8535 28.3948 86.8535 29.4082ZM98.8105 24.9762C98.9599 24.9762 99.1199 24.9868 99.2905 25.0082C99.4612 25.0188 99.6105 25.0402 99.7385 25.0722L99.5785 26.3682C99.4505 26.3362 99.3065 26.3095 99.1465 26.2882C98.9972 26.2668 98.8532 26.2562 98.7145 26.2562C98.4052 26.2562 98.1119 26.3255 97.8345 26.4642C97.5572 26.6028 97.3065 26.8002 97.0825 27.0562C96.8692 27.3015 96.6985 27.6002 96.5705 27.9522C96.4425 28.3042 96.3785 28.6988 96.3785 29.1362V33.7122H94.9865V25.1362H96.1225L96.2825 26.7042H96.3465C96.5172 26.3842 96.7199 26.0962 96.9545 25.8402C97.1999 25.5735 97.4772 25.3655 97.7865 25.2162C98.0959 25.0562 98.4372 24.9762 98.8105 24.9762ZM104.005 32.7202C104.207 32.7202 104.415 32.7042 104.629 32.6722C104.842 32.6295 105.018 32.5868 105.157 32.5442V33.6162C105.007 33.6908 104.794 33.7495 104.517 33.7922C104.25 33.8455 103.994 33.8722 103.749 33.8722C103.322 33.8722 102.927 33.7975 102.565 33.6482C102.202 33.4882 101.909 33.2162 101.685 32.8322C101.471 32.4482 101.365 31.9095 101.365 31.2162V26.2242H100.229V25.5522L101.397 24.9922L101.925 23.1682H102.757V25.1362H105.093V26.2242H102.757V31.1842C102.757 31.7068 102.874 32.0962 103.109 32.3522C103.343 32.5975 103.642 32.7202 104.005 32.7202ZM108.16 25.1362V33.7122H106.768V25.1362H108.16ZM107.472 21.9202C107.685 21.9202 107.872 21.9948 108.032 22.1442C108.192 22.2828 108.272 22.5068 108.272 22.8162C108.272 23.1148 108.192 23.3388 108.032 23.4882C107.872 23.6375 107.685 23.7122 107.472 23.7122C107.248 23.7122 107.056 23.6375 106.896 23.4882C106.736 23.3388 106.656 23.1148 106.656 22.8162C106.656 22.5068 106.736 22.2828 106.896 22.1442C107.056 21.9948 107.248 21.9202 107.472 21.9202ZM117.49 25.1362V33.7122H116.37L116.162 32.5762H116.098C115.927 32.8748 115.703 33.1202 115.426 33.3122C115.159 33.5042 114.866 33.6428 114.546 33.7282C114.226 33.8242 113.89 33.8722 113.538 33.8722C112.898 33.8722 112.359 33.7655 111.922 33.5522C111.484 33.3282 111.154 32.9868 110.93 32.5282C110.716 32.0695 110.61 31.4775 110.61 30.7522V25.1362H112.018V30.6562C112.018 31.3388 112.162 31.8508 112.45 32.1922C112.738 32.5335 113.18 32.7042 113.778 32.7042C114.364 32.7042 114.823 32.5868 115.154 32.3522C115.495 32.1068 115.735 31.7548 115.874 31.2962C116.023 30.8268 116.098 30.2615 116.098 29.6002V25.1362H117.49ZM128.93 24.9762C129.847 24.9762 130.53 25.2268 130.978 25.7282C131.426 26.2188 131.65 27.0188 131.65 28.1282V33.7122H130.274V28.1922C130.274 27.5202 130.14 27.0135 129.874 26.6722C129.618 26.3308 129.212 26.1602 128.658 26.1602C127.89 26.1602 127.34 26.4002 127.01 26.8802C126.69 27.3602 126.53 28.0588 126.53 28.9762V33.7122H125.138V28.1922C125.138 27.7442 125.079 27.3708 124.962 27.0722C124.844 26.7628 124.668 26.5335 124.434 26.3842C124.199 26.2348 123.895 26.1602 123.522 26.1602C122.988 26.1602 122.567 26.2828 122.258 26.5282C121.948 26.7628 121.73 27.1095 121.602 27.5682C121.474 28.0268 121.41 28.5922 121.41 29.2642V33.7122H120.018V25.1362H121.138L121.346 26.3042H121.426C121.596 26.0055 121.804 25.7602 122.05 25.5682C122.295 25.3655 122.567 25.2162 122.866 25.1202C123.164 25.0242 123.474 24.9762 123.794 24.9762C124.412 24.9762 124.93 25.0935 125.346 25.3282C125.762 25.5628 126.066 25.9255 126.258 26.4162H126.354C126.62 25.9255 126.983 25.5628 127.442 25.3282C127.911 25.0935 128.407 24.9762 128.93 24.9762Z" fill="#F58726"/>
<defs>
<clipPath id="clip0_2027_966">
<rect width="44.11" height="36.5063" fill="white" transform="translate(0.0340576 0.975098)"/>
</clipPath>
</defs>
</svg>
