<svg width="19" height="18" viewBox="0 0 19 18" fill="none" xmlns="http://www.w3.org/2000/svg">
<g clip-path="url(#clip0_2027_946)">
<path d="M13.7244 2.13529C14.3758 2.13529 15.0006 2.39409 15.4613 2.85476C15.922 3.31543 16.1808 3.94023 16.1808 4.59171V13.1892C16.1808 13.8407 15.922 14.4655 15.4613 14.9262C15.0006 15.3868 14.3758 15.6456 13.7244 15.6456H5.12687C4.47538 15.6456 3.85058 15.3868 3.38991 14.9262C2.92924 14.4655 2.67044 13.8407 2.67044 13.1892V4.59171C2.67044 3.94023 2.92924 3.31543 3.38991 2.85476C3.85058 2.39409 4.47538 2.13529 5.12687 2.13529H13.7244ZM13.7244 0.292969H5.12687C3.98677 0.292969 2.89337 0.745871 2.0872 1.55204C1.28103 2.35821 0.828125 3.45162 0.828125 4.59171L0.828125 13.1892C0.828125 14.3293 1.28103 15.4227 2.0872 16.2289C2.89337 17.035 3.98677 17.4879 5.12687 17.4879H13.7244C14.8645 17.4879 15.9579 17.035 16.764 16.2289C17.5702 15.4227 18.0231 14.3293 18.0231 13.1892V4.59171C18.0231 3.45162 17.5702 2.35821 16.764 1.55204C15.9579 0.745871 14.8645 0.292969 13.7244 0.292969Z" fill="#FDFDFD"/>
<path d="M9.42555 6.3787C9.92231 6.3787 10.4079 6.526 10.821 6.80199C11.234 7.07798 11.5559 7.47026 11.7461 7.92921C11.9362 8.38816 11.9859 8.89318 11.889 9.3804C11.7921 9.86762 11.5529 10.3152 11.2016 10.6664C10.8503 11.0177 10.4028 11.2569 9.91556 11.3538C9.42833 11.4507 8.92332 11.401 8.46436 11.2109C8.00541 11.0208 7.61314 10.6989 7.33715 10.2858C7.06116 9.87277 6.91385 9.38716 6.91385 8.89039C6.91385 8.22425 7.17848 7.58539 7.64951 7.11435C8.12055 6.64332 8.75941 6.3787 9.42555 6.3787ZM9.42555 4.53638C8.56441 4.53638 7.7226 4.79174 7.00659 5.27016C6.29057 5.74859 5.73251 6.42859 5.40296 7.22418C5.07342 8.01977 4.9872 8.89522 5.1552 9.73982C5.3232 10.5844 5.73788 11.3602 6.3468 11.9691C6.95572 12.5781 7.73153 12.9927 8.57612 13.1607C9.42072 13.3287 10.2962 13.2425 11.0918 12.913C11.8873 12.5834 12.5674 12.0254 13.0458 11.3094C13.5242 10.5933 13.7796 9.75153 13.7796 8.89039C13.7779 7.73613 13.3187 6.62962 12.5025 5.81343C11.6863 4.99725 10.5798 4.538 9.42555 4.53638Z" fill="#FDFDFD"/>
<path d="M14.0315 5.20584C14.5403 5.20584 14.9527 4.79343 14.9527 4.28468C14.9527 3.77594 14.5403 3.36353 14.0315 3.36353C13.5228 3.36353 13.1104 3.77594 13.1104 4.28468C13.1104 4.79343 13.5228 5.20584 14.0315 5.20584Z" fill="#FDFDFD"/>
</g>
<defs>
<clipPath id="clip0_2027_946">
<rect width="17.195" height="17.195" fill="white" transform="translate(0.828125 0.292969)"/>
</clipPath>
</defs>
</svg>
