<svg width="19" height="18" viewBox="0 0 19 18" fill="none" xmlns="http://www.w3.org/2000/svg">
<g clip-path="url(#clip0_2027_950)">
<path d="M4.81826 17.5357V5.70399H0.887079V17.5357H4.81826ZM2.85584 4.09086C3.25437 4.06241 3.63591 3.9182 3.95362 3.67593C4.27133 3.43367 4.51138 3.10389 4.64428 2.7271C4.77719 2.35031 4.79717 1.94292 4.70177 1.55494C4.60637 1.16696 4.39974 0.815271 4.10727 0.543079C3.81479 0.270888 3.44919 0.0900395 3.05536 0.0227296C2.66153 -0.0445803 2.25661 0.0045814 1.89033 0.164184C1.52406 0.323787 1.21236 0.586874 0.993521 0.921151C0.77468 1.25543 0.658225 1.64634 0.658448 2.04588C0.658605 2.32747 0.716739 2.60602 0.829226 2.86418C0.941714 3.12233 1.10614 3.35455 1.31228 3.54639C1.51841 3.73823 1.76185 3.88558 2.02741 3.97925C2.29297 4.07292 2.57496 4.11091 2.85584 4.09086ZM6.99661 17.5357H10.896V10.9307C10.8801 10.606 10.9232 10.2811 11.0231 9.97177C11.1709 9.55366 11.4442 9.19139 11.8057 8.93449C12.1672 8.67759 12.5992 8.53858 13.0426 8.53647C14.4652 8.53647 15.0368 9.62247 15.0368 11.2102V17.5611H18.968V10.7529C18.968 7.12023 17.031 5.43089 14.4398 5.43089C13.719 5.40253 13.0043 5.57372 12.3745 5.92558C11.7448 6.27745 11.2244 6.79633 10.8706 7.42507V5.71033H6.93946C6.99026 6.82174 6.93946 17.542 6.93946 17.542L6.99661 17.5357Z" fill="#FDFDFD"/>
</g>
<defs>
<clipPath id="clip0_2027_950">
<rect width="18.3413" height="17.5347" fill="white" transform="translate(0.658447)"/>
</clipPath>
</defs>
</svg>
