<svg width="236" height="65" viewBox="0 0 236 65" fill="none" xmlns="http://www.w3.org/2000/svg">
<g clip-path="url(#clip0_2086_2)">
<path d="M55.77 15.3101C56.75 15.9801 56.65 17.0101 56.65 17.9901C56.65 31.0501 56.59 44.1201 56.71 57.1801C56.73 59.8101 55.87 60.5701 53.3 60.5301C44.53 60.4101 35.75 60.4001 26.98 60.5801C24.04 60.6401 23.67 59.2101 23.91 56.9301C28.13 42.5501 36.95 31.6201 50.6 23.1001C45.48 22.3801 41.73 21.8501 36.77 21.1501C43.59 17.7601 49.6 16.2801 55.78 15.3301L55.77 15.3101Z" fill="#F37009"/>
<path d="M55.77 15.3101C49.59 16.2601 43.58 17.7401 36.76 21.1301C41.72 21.8301 45.47 22.3601 50.59 23.0801C36.95 31.6001 28.12 42.5401 23.9 56.9101C24.16 47.9701 26.05 39.5401 31.58 32.2301C32.28 31.3001 33.01 30.3801 33.57 29.3701C35.22 26.3901 33.82 23.9001 30.36 23.7401C28.2 23.6401 26.04 23.7201 22.66 23.7201C33.18 16.0701 44.13 11.7801 55.76 7.06006V15.3101H55.77Z" fill="#D6D4CD"/>
<path d="M73.79 46.0399C73.79 52.7599 68.13 59.0399 62.18 59.9599C60.46 60.2299 60.29 59.3199 59.78 58.2399C59.17 56.9499 59.31 56.3699 60.72 55.6099C70.5 50.3899 70.92 48.9699 66.46 38.6499C64.03 33.0199 61.44 27.4499 59.28 21.7199C56.47 14.2999 62.51 5.16989 70.39 4.35989C72.17 4.17989 72.12 5.37989 72.67 6.30989C73.39 7.52989 72.88 8.08989 71.75 8.51989C70.67 8.92989 69.59 9.35989 68.55 9.87989C63.7 12.3099 61.91 16.3199 63.91 21.3799C66.4 27.6999 69.21 33.8899 71.98 40.0899C72.94 42.2399 73.74 44.3799 73.79 46.0299V46.0399Z" fill="#878686"/>
<path d="M40.61 2.30995C40.76 4.82995 36.52 8.72995 33.83 8.82995C32.19 8.88995 31.15 8.25995 31.42 6.57995C31.98 3.07995 34.46 1.15995 37.57 0.12995C39.31 -0.45005 40.24 0.86995 40.61 2.29995V2.30995Z" fill="#F47613"/>
<path d="M20.94 25.6301C18.84 25.6101 17 26.4401 15.33 27.5901C9.58002 31.5501 5.88002 37.1301 3.03002 43.3501C1.59002 46.5001 0.580018 49.7901 0.500018 53.2701C0.440018 56.0801 1.42002 58.4901 4.04002 59.8901C6.53002 61.2201 8.85002 60.4101 10.8 58.7701C12.45 57.3801 13.83 55.6601 15.32 54.0901C15.57 53.8301 15.8 53.5501 16.25 53.0501L16.58 60.1201C16.88 60.2001 16.8 60.1801 17.1 60.2601C17.95 56.0101 19.95 50.8401 22 46.3601C20.82 46.3601 19.71 46.3601 18.62 46.3601L18.25 47.1601C18.25 47.1801 18.23 47.2001 18.22 47.2201L18.18 47.3201C17.32 49.0501 16.71 50.5201 15.9 51.8501C14.23 54.5901 12.29 57.1301 9.23002 58.4901C7.43002 59.2901 6.13002 58.6501 5.53002 56.7701C4.80002 54.4601 4.98002 52.1201 5.38002 49.8001C6.20002 45.1201 8.07002 40.8201 10.45 36.7501C12.34 33.5101 14.47 30.4001 17.82 28.4901C18.93 27.8601 20.32 27.5301 21.61 27.4601C23.05 27.3901 24.09 28.5701 23.88 29.9901C23.8 30.5301 23.71 31.0601 23.62 31.6001L24.24 31.7201L24.8 28.6701C24.11 26.4801 23 25.6401 20.94 25.6201V25.6301Z" fill="#878686" stroke="#878686" stroke-miterlimit="10"/>
</g>
<path d="M94.462 38.2052C93.4373 38.2052 92.519 38.3985 91.707 38.7852C90.895 39.1525 90.199 39.7035 89.619 40.4382C89.0583 41.1535 88.6233 42.0332 88.314 43.0772C88.024 44.1018 87.879 45.2618 87.879 46.5572C87.879 48.2585 88.1207 49.7375 88.604 50.9942C89.0873 52.2508 89.8123 53.2175 90.779 53.8942C91.765 54.5708 92.983 54.9092 94.433 54.9092C95.2837 54.9092 96.086 54.8318 96.84 54.6772C97.6133 54.5225 98.377 54.3292 99.131 54.0972V56.3592C98.3963 56.6492 97.6423 56.8618 96.869 56.9972C96.0957 57.1325 95.1677 57.2002 94.085 57.2002C92.0937 57.2002 90.431 56.7652 89.097 55.8952C87.7823 55.0252 86.7963 53.7878 86.139 52.1832C85.4817 50.5785 85.153 48.6935 85.153 46.5282C85.153 44.9622 85.356 43.5315 85.762 42.2362C86.168 40.9408 86.7673 39.8195 87.56 38.8722C88.3527 37.9248 89.329 37.1998 90.489 36.6972C91.649 36.1752 92.983 35.9142 94.491 35.9142C95.477 35.9142 96.434 36.0205 97.362 36.2332C98.29 36.4458 99.131 36.7455 99.885 37.1322L98.87 39.3362C98.2707 39.0462 97.594 38.7852 96.84 38.5532C96.1053 38.3212 95.3127 38.2052 94.462 38.2052ZM115.799 49.1092C115.799 50.4045 115.634 51.5548 115.306 52.5602C114.996 53.5462 114.542 54.3872 113.943 55.0832C113.343 55.7792 112.618 56.3108 111.768 56.6782C110.917 57.0262 109.97 57.2002 108.926 57.2002C107.959 57.2002 107.06 57.0262 106.229 56.6782C105.417 56.3108 104.701 55.7792 104.083 55.0832C103.483 54.3872 103.019 53.5462 102.691 52.5602C102.362 51.5548 102.198 50.4045 102.198 49.1092C102.198 47.3885 102.468 45.9385 103.01 44.7592C103.57 43.5605 104.363 42.6518 105.388 42.0332C106.412 41.3952 107.621 41.0762 109.013 41.0762C110.347 41.0762 111.516 41.3952 112.522 42.0332C113.546 42.6518 114.349 43.5605 114.929 44.7592C115.509 45.9385 115.799 47.3885 115.799 49.1092ZM104.808 49.1092C104.808 50.3272 104.953 51.3905 105.243 52.2992C105.533 53.1885 105.987 53.8748 106.606 54.3582C107.224 54.8415 108.017 55.0832 108.984 55.0832C109.95 55.0832 110.743 54.8415 111.362 54.3582C111.98 53.8748 112.435 53.1885 112.725 52.2992C113.034 51.3905 113.189 50.3272 113.189 49.1092C113.189 47.8718 113.034 46.8182 112.725 45.9482C112.435 45.0782 111.98 44.4112 111.362 43.9472C110.743 43.4638 109.941 43.2222 108.955 43.2222C107.505 43.2222 106.451 43.7442 105.794 44.7882C105.136 45.8322 104.808 47.2725 104.808 49.1092ZM126.683 41.0762C128.423 41.0762 129.737 41.5305 130.627 42.4392C131.535 43.3285 131.99 44.7785 131.99 46.7892V56.9102H129.467V46.9632C129.467 45.7065 129.206 44.7688 128.684 44.1502C128.162 43.5315 127.359 43.2222 126.277 43.2222C124.691 43.2222 123.589 43.7055 122.971 44.6722C122.371 45.6388 122.072 47.0308 122.072 48.8482V56.9102H119.549V41.3662H121.579L121.956 43.4832H122.101C122.41 42.9418 122.806 42.4972 123.29 42.1492C123.773 41.7818 124.305 41.5112 124.885 41.3372C125.465 41.1632 126.064 41.0762 126.683 41.0762ZM146.083 52.6182C146.083 53.6235 145.842 54.4645 145.358 55.1412C144.894 55.8178 144.227 56.3302 143.357 56.6782C142.487 57.0262 141.443 57.2002 140.225 57.2002C139.201 57.2002 138.311 57.1132 137.557 56.9392C136.823 56.7652 136.175 56.5235 135.614 56.2142V53.8942C136.214 54.2035 136.929 54.4935 137.76 54.7642C138.592 55.0155 139.433 55.1412 140.283 55.1412C141.463 55.1412 142.313 54.9382 142.835 54.5322C143.377 54.1068 143.647 53.5462 143.647 52.8502C143.647 52.4635 143.541 52.1155 143.328 51.8062C143.135 51.4968 142.777 51.1875 142.255 50.8782C141.753 50.5688 141.018 50.2208 140.051 49.8342C139.123 49.4475 138.321 49.0608 137.644 48.6742C136.987 48.2875 136.475 47.8235 136.107 47.2822C135.759 46.7408 135.585 46.0448 135.585 45.1942C135.585 43.8795 136.088 42.8645 137.093 42.1492C138.118 41.4338 139.452 41.0762 141.095 41.0762C141.985 41.0762 142.816 41.1728 143.589 41.3662C144.363 41.5402 145.097 41.7915 145.793 42.1202L144.952 44.1502C144.546 43.9568 144.121 43.7925 143.676 43.6572C143.232 43.5025 142.777 43.3865 142.313 43.3092C141.869 43.2125 141.414 43.1642 140.95 43.1642C140.003 43.1642 139.278 43.3382 138.775 43.6862C138.273 44.0148 138.021 44.4692 138.021 45.0492C138.021 45.4745 138.137 45.8418 138.369 46.1512C138.601 46.4605 138.978 46.7602 139.5 47.0502C140.042 47.3208 140.776 47.6398 141.704 48.0072C142.632 48.3745 143.425 48.7515 144.082 49.1382C144.74 49.5248 145.233 49.9985 145.561 50.5592C145.909 51.1005 146.083 51.7868 146.083 52.6182ZM162.386 49.1092C162.386 50.4045 162.221 51.5548 161.893 52.5602C161.583 53.5462 161.129 54.3872 160.53 55.0832C159.93 55.7792 159.205 56.3108 158.355 56.6782C157.504 57.0262 156.557 57.2002 155.513 57.2002C154.546 57.2002 153.647 57.0262 152.816 56.6782C152.004 56.3108 151.288 55.7792 150.67 55.0832C150.07 54.3872 149.606 53.5462 149.278 52.5602C148.949 51.5548 148.785 50.4045 148.785 49.1092C148.785 47.3885 149.055 45.9385 149.597 44.7592C150.157 43.5605 150.95 42.6518 151.975 42.0332C152.999 41.3952 154.208 41.0762 155.6 41.0762C156.934 41.0762 158.103 41.3952 159.109 42.0332C160.133 42.6518 160.936 43.5605 161.516 44.7592C162.096 45.9385 162.386 47.3885 162.386 49.1092ZM151.395 49.1092C151.395 50.3272 151.54 51.3905 151.83 52.2992C152.12 53.1885 152.574 53.8748 153.193 54.3582C153.811 54.8415 154.604 55.0832 155.571 55.0832C156.537 55.0832 157.33 54.8415 157.949 54.3582C158.567 53.8748 159.022 53.1885 159.312 52.2992C159.621 51.3905 159.776 50.3272 159.776 49.1092C159.776 47.8718 159.621 46.8182 159.312 45.9482C159.022 45.0782 158.567 44.4112 157.949 43.9472C157.33 43.4638 156.528 43.2222 155.542 43.2222C154.092 43.2222 153.038 43.7442 152.381 44.7882C151.723 45.8322 151.395 47.2725 151.395 49.1092ZM173.067 41.0762C173.337 41.0762 173.627 41.0955 173.937 41.1342C174.246 41.1535 174.517 41.1922 174.749 41.2502L174.459 43.5992C174.227 43.5412 173.966 43.4928 173.676 43.4542C173.405 43.4155 173.144 43.3962 172.893 43.3962C172.332 43.3962 171.8 43.5218 171.298 43.7732C170.795 44.0245 170.341 44.3822 169.935 44.8462C169.548 45.2908 169.239 45.8322 169.007 46.4702C168.775 47.1082 168.659 47.8235 168.659 48.6162V56.9102H166.136V41.3662H168.195L168.485 44.2082H168.601C168.91 43.6282 169.277 43.1062 169.703 42.6422C170.147 42.1588 170.65 41.7818 171.211 41.5112C171.771 41.2212 172.39 41.0762 173.067 41.0762ZM182.481 55.1122C182.848 55.1122 183.225 55.0832 183.612 55.0252C183.999 54.9478 184.318 54.8705 184.569 54.7932V56.7362C184.298 56.8715 183.912 56.9778 183.409 57.0552C182.926 57.1518 182.462 57.2002 182.017 57.2002C181.244 57.2002 180.528 57.0648 179.871 56.7942C179.214 56.5042 178.682 56.0112 178.276 55.3152C177.889 54.6192 177.696 53.6428 177.696 52.3862V43.3382H175.637V42.1202L177.754 41.1052L178.711 37.7992H180.219V41.3662H184.453V43.3382H180.219V52.3282C180.219 53.2755 180.432 53.9812 180.857 54.4452C181.282 54.8898 181.824 55.1122 182.481 55.1122ZM190.013 41.3662V56.9102H187.49V41.3662H190.013ZM188.766 35.5372C189.153 35.5372 189.491 35.6725 189.781 35.9432C190.071 36.1945 190.216 36.6005 190.216 37.1612C190.216 37.7025 190.071 38.1085 189.781 38.3792C189.491 38.6498 189.153 38.7852 188.766 38.7852C188.36 38.7852 188.012 38.6498 187.722 38.3792C187.432 38.1085 187.287 37.7025 187.287 37.1612C187.287 36.6005 187.432 36.1945 187.722 35.9432C188.012 35.6725 188.36 35.5372 188.766 35.5372ZM206.923 41.3662V56.9102H204.893L204.516 54.8512H204.4C204.09 55.3925 203.684 55.8372 203.182 56.1852C202.698 56.5332 202.167 56.7845 201.587 56.9392C201.007 57.1132 200.398 57.2002 199.76 57.2002C198.6 57.2002 197.623 57.0068 196.831 56.6202C196.038 56.2142 195.439 55.5955 195.033 54.7642C194.646 53.9328 194.453 52.8598 194.453 51.5452V41.3662H197.005V51.3712C197.005 52.6085 197.266 53.5365 197.788 54.1552C198.31 54.7738 199.112 55.0832 200.195 55.0832C201.258 55.0832 202.089 54.8705 202.689 54.4452C203.307 54.0005 203.742 53.3625 203.994 52.5312C204.264 51.6805 204.4 50.6558 204.4 49.4572V41.3662H206.923ZM227.658 41.0762C229.321 41.0762 230.558 41.5305 231.37 42.4392C232.182 43.3285 232.588 44.7785 232.588 46.7892V56.9102H230.094V46.9052C230.094 45.6872 229.852 44.7688 229.369 44.1502C228.905 43.5315 228.17 43.2222 227.165 43.2222C225.773 43.2222 224.777 43.6572 224.178 44.5272C223.598 45.3972 223.308 46.6635 223.308 48.3262V56.9102H220.785V46.9052C220.785 46.0932 220.679 45.4165 220.466 44.8752C220.253 44.3145 219.934 43.8988 219.509 43.6282C219.084 43.3575 218.533 43.2222 217.856 43.2222C216.889 43.2222 216.126 43.4445 215.565 43.8892C215.004 44.3145 214.608 44.9428 214.376 45.7742C214.144 46.6055 214.028 47.6302 214.028 48.8482V56.9102H211.505V41.3662H213.535L213.912 43.4832H214.057C214.366 42.9418 214.743 42.4972 215.188 42.1492C215.633 41.7818 216.126 41.5112 216.667 41.3372C217.208 41.1632 217.769 41.0762 218.349 41.0762C219.47 41.0762 220.408 41.2888 221.162 41.7142C221.916 42.1395 222.467 42.7968 222.815 43.6862H222.989C223.472 42.7968 224.13 42.1395 224.961 41.7142C225.812 41.2888 226.711 41.0762 227.658 41.0762Z" fill="#F58726"/>
<defs>
<clipPath id="clip0_2086_2">
<rect width="73.79" height="61.07" fill="white"/>
</clipPath>
</defs>
</svg>
