<svg width="33" height="33" viewBox="0 0 33 33" fill="none" xmlns="http://www.w3.org/2000/svg">
<g clip-path="url(#clip0_2027_102)">
<path d="M20.6195 17.9286L23.7352 17.6261C24.453 19.382 26.1759 20.625 28.1875 20.625C30.8412 20.625 33 18.4663 33 15.8125C33 13.1588 30.8412 11 28.1875 11C25.85 11 23.9003 12.6761 23.4685 14.8899L20.0887 15.2171C19.7739 14.4691 19.3174 13.8009 18.7729 13.2151L21.3015 9.39813C21.7442 9.53288 22.2035 9.62638 22.6889 9.62638C25.3426 9.62638 27.5014 7.46763 27.5014 4.81388C27.5014 2.16013 25.3412 0 22.6875 0C20.0338 0 17.875 2.15875 17.875 4.8125C17.875 5.98263 18.3109 7.04138 19.008 7.87738L16.5399 11.605C15.6846 11.2228 14.7455 11 13.75 11C12.7545 11 11.8154 11.2228 10.9601 11.605L8.492 7.87738C9.18913 7.04275 9.625 5.98263 9.625 4.8125C9.625 2.16013 7.46625 0 4.8125 0C2.15875 0 0 2.16013 0 4.81388C0 7.46763 2.15875 9.62638 4.8125 9.62638C5.29787 9.62638 5.75712 9.53288 6.19987 9.39813L8.7285 13.2151C7.58862 14.443 6.87637 16.0724 6.87637 17.8764C6.87637 19.4301 7.414 20.8478 8.28575 22L6.75675 23.793C6.16138 23.529 5.50688 23.3764 4.81525 23.3764C2.1615 23.3764 0.00275 25.5351 0.00275 28.1889C0.00275 30.8426 2.1615 33.0014 4.81525 33.0014C7.469 33.0014 9.62775 30.8426 9.62775 28.1889C9.62775 27.2264 9.33625 26.3326 8.84812 25.5805L10.3524 23.8164C11.3589 24.3953 12.5097 24.7528 13.7527 24.7528C15.2735 24.7528 16.6664 24.2413 17.8062 23.4025L21.0609 26.2199C20.7886 26.8235 20.6278 27.4876 20.6278 28.1916C20.6278 30.8454 22.7865 33.0041 25.4403 33.0041C28.094 33.0041 30.2528 30.8454 30.2528 28.1916C30.2528 25.5379 28.094 23.3791 25.4403 23.3791C24.4901 23.3791 23.6088 23.6651 22.8621 24.1423L19.6474 21.3606C20.2469 20.35 20.6126 19.1868 20.6222 17.9328L20.6195 17.9286ZM28.1875 13.7514C29.3246 13.7514 30.25 14.6768 30.25 15.8139C30.25 16.951 29.3246 17.8764 28.1875 17.8764C27.0504 17.8764 26.125 16.951 26.125 15.8139C26.125 14.6768 27.0504 13.7514 28.1875 13.7514ZM22.6875 2.75138C23.8246 2.75138 24.75 3.67675 24.75 4.81388C24.75 5.951 23.8246 6.87638 22.6875 6.87638C21.5504 6.87638 20.625 5.951 20.625 4.81388C20.625 3.67675 21.5504 2.75138 22.6875 2.75138ZM2.75 4.81388C2.75 3.67675 3.67537 2.75138 4.8125 2.75138C5.94963 2.75138 6.875 3.67675 6.875 4.81388C6.875 5.951 5.94963 6.87638 4.8125 6.87638C3.67537 6.87638 2.75 5.951 2.75 4.81388ZM4.8125 30.2514C3.67537 30.2514 2.75 29.326 2.75 28.1889C2.75 27.0518 3.67537 26.1264 4.8125 26.1264C5.94963 26.1264 6.875 27.0518 6.875 28.1889C6.875 29.326 5.94963 30.2514 4.8125 30.2514ZM9.625 17.8764C9.625 15.6021 11.4757 13.7514 13.75 13.7514C16.0243 13.7514 17.875 15.6021 17.875 17.8764C17.875 20.1506 16.0243 22.0014 13.75 22.0014C11.4757 22.0014 9.625 20.1506 9.625 17.8764ZM27.5 28.1889C27.5 29.326 26.5746 30.2514 25.4375 30.2514C24.3004 30.2514 23.375 29.326 23.375 28.1889C23.375 27.0518 24.3004 26.1264 25.4375 26.1264C26.5746 26.1264 27.5 27.0518 27.5 28.1889Z" fill="#F58726"/>
</g>
<defs>
<clipPath id="clip0_2027_102">
<rect width="33" height="33" fill="white"/>
</clipPath>
</defs>
</svg>
