<svg width="36" height="36" viewBox="0 0 36 36" fill="none" xmlns="http://www.w3.org/2000/svg">
<path d="M36 12C36 14.472 35.061 17.0085 33.6285 19.446C33.2175 18.4065 32.5845 17.4435 31.725 16.6485C32.511 15.0555 33 13.482 33 12C33 7.93498 29.9085 4.49997 26.25 4.49997C22.8975 4.49997 20.988 5.85747 19.701 7.04098L13.965 12.3645C13.4355 12.8955 13.3095 13.788 13.7205 14.3595C13.989 14.733 14.3835 14.958 14.829 14.994C15.2715 15.0345 15.7005 14.8725 16.011 14.559L22.2705 8.56648L24.345 10.7325L22.488 12.51L29.6085 18.759C31.2765 20.223 31.6875 22.6815 30.564 24.477C29.8725 25.581 28.743 26.3235 27.4665 26.511C27.3795 26.523 27.294 26.5335 27.207 26.541C27.201 27.3135 26.9955 28.0785 26.574 28.7535C25.8825 29.8575 24.753 30.6 23.4765 30.7875C23.199 30.8265 22.923 30.843 22.647 30.8295C22.566 31.4025 22.371 31.9605 22.0545 32.466C21.363 33.57 20.2335 34.311 18.957 34.4985C18.7425 34.53 18.528 34.545 18.3165 34.545C17.256 34.545 16.227 34.1625 15.42 33.453L10.764 29.277C5.8515 24.84 0 18.2415 0 12C0 6.20998 4.374 1.49997 9.75 1.49997C12.1545 1.49997 13.9995 2.06397 15.447 2.80347L13.0485 5.02947C12.1335 4.70847 11.0535 4.49997 9.75 4.49997C6.0915 4.49997 3 7.93498 3 12C3 16.011 6.4695 21.3555 12.7725 27.051L17.4135 31.212C17.709 31.4715 18.1185 31.5915 18.5235 31.533C18.9345 31.473 19.287 31.2405 19.5135 30.876C19.8585 30.3225 19.6875 29.5005 19.122 29.0055L14.3115 24.432L16.3755 22.254L21.9585 27.525C22.227 27.759 22.6425 27.882 23.0415 27.819C23.4525 27.759 23.805 27.525 24.0315 27.162C24.3765 26.6085 24.2055 25.7865 23.64 25.29L18.3 20.4555L20.3025 18.2235L25.9155 23.2185C26.2155 23.4825 26.6265 23.6055 27.03 23.5425C27.441 23.4825 27.7935 23.2485 28.02 22.8855C28.365 22.332 28.194 21.51 27.6285 21.0135L20.3115 14.592L18.1065 16.7025C17.28 17.5305 16.1385 17.9985 14.9505 17.9985C13.3815 17.9985 12.063 17.1945 11.283 16.1115C10.0155 14.3505 10.272 11.811 11.88 10.203L17.6625 4.83597C19.2255 3.40047 21.8085 1.49847 26.247 1.49847C31.623 1.49847 35.997 6.20848 35.997 11.9985L36 12Z" fill="#F58726"/>
</svg>
